<svg xmlns="http://www.w3.org/2000/svg" viewBox="0 0 1600 900">
  <defs>
    <linearGradient id="sky" x1="0" y1="0" x2="1" y2="1">
      <stop offset="0" stop-color="#f7f9fc"/>
      <stop offset="1" stop-color="#e7edf6"/>
    </linearGradient>
    <linearGradient id="line" x1="0" y1="0" x2="1" y2="0">
      <stop offset="0" stop-color="#9ab6d9" stop-opacity="0"/>
      <stop offset="1" stop-color="#6a8fbf" stop-opacity="0.7"/>
    </linearGradient>
    <linearGradient id="coin" x1="0" y1="0" x2="1" y2="1">
      <stop offset="0" stop-color="#f4e3a3"/>
      <stop offset="1" stop-color="#d2b15b"/>
    </linearGradient>
  </defs>
  <rect width="1600" height="900" fill="url(#sky)"/>
  <g opacity="0.5">
    <path d="M120 640 C 280 560, 420 710, 620 640 C 820 570, 980 700, 1200 610" stroke="url(#line)" stroke-width="4" fill="none"/>
    <path d="M160 520 C 360 460, 560 610, 760 520 C 980 430, 1160 590, 1400 500" stroke="url(#line)" stroke-width="3" fill="none"/>
  </g>
  <g opacity="0.35">
    <circle cx="1280" cy="180" r="90" fill="url(#coin)"/>
    <circle cx="1370" cy="240" r="64" fill="url(#coin)"/>
    <circle cx="1200" cy="260" r="48" fill="url(#coin)"/>
  </g>
  <g opacity="0.2">
    <rect x="180" y="170" width="240" height="8" fill="#7aa1d3"/>
    <rect x="180" y="210" width="320" height="8" fill="#7aa1d3"/>
    <rect x="180" y="250" width="280" height="8" fill="#7aa1d3"/>
  </g>
</svg>
