<svg xmlns="http://www.w3.org/2000/svg" viewBox="0 0 1600 400">
  <defs>
    <linearGradient id="bg" x1="0" y1="0" x2="1" y2="1">
      <stop offset="0" stop-color="#f6f8fc"/>
      <stop offset="1" stop-color="#e3eaf5"/>
    </linearGradient>
    <linearGradient id="line" x1="0" y1="0" x2="1" y2="0">
      <stop offset="0" stop-color="#7aa1d3" stop-opacity="0"/>
      <stop offset="1" stop-color="#4c79b4" stop-opacity="0.7"/>
    </linearGradient>
    <linearGradient id="accent" x1="0" y1="0" x2="1" y2="1">
      <stop offset="0" stop-color="#f1dc9a"/>
      <stop offset="1" stop-color="#c9a24a"/>
    </linearGradient>
  </defs>
  <rect width="1600" height="400" fill="url(#bg)" />
  <g opacity="0.5">
    <path d="M120 280 C 320 230, 520 320, 760 260 C 980 210, 1160 320, 1400 240" stroke="url(#line)" stroke-width="4" fill="none"/>
    <path d="M140 190 C 360 140, 560 240, 820 180 C 1040 130, 1260 230, 1480 160" stroke="url(#line)" stroke-width="3" fill="none"/>
  </g>
  <g opacity="0.28">
    <circle cx="1320" cy="120" r="70" fill="url(#accent)"/>
    <circle cx="1390" cy="170" r="48" fill="url(#accent)"/>
    <circle cx="1240" cy="170" r="38" fill="url(#accent)"/>
  </g>
  <g opacity="0.2">
    <rect x="130" y="90" width="220" height="8" fill="#7aa1d3"/>
    <rect x="130" y="125" width="300" height="8" fill="#7aa1d3"/>
    <rect x="130" y="160" width="260" height="8" fill="#7aa1d3"/>
  </g>
  <g opacity="0.12">
    <rect x="80" y="40" width="1440" height="320" fill="#ffffff" rx="22"/>
  </g>
</svg>
