<svg xmlns="http://www.w3.org/2000/svg" viewBox="0 0 1600 400">
  <defs>
    <linearGradient id="bg" x1="0" y1="0" x2="1" y2="1">
      <stop offset="0" stop-color="#f8fafc"/>
      <stop offset="1" stop-color="#e6eef9"/>
    </linearGradient>
    <linearGradient id="grid" x1="0" y1="0" x2="0" y2="1">
      <stop offset="0" stop-color="#9bb3d2" stop-opacity="0.2"/>
      <stop offset="1" stop-color="#9bb3d2" stop-opacity="0.05"/>
    </linearGradient>
    <linearGradient id="accent" x1="0" y1="0" x2="1" y2="1">
      <stop offset="0" stop-color="#8fb0df"/>
      <stop offset="1" stop-color="#4c7bb8"/>
    </linearGradient>
  </defs>
  <rect width="1600" height="400" fill="url(#bg)" />
  <g opacity="0.25">
    <rect x="120" y="70" width="1360" height="260" fill="url(#grid)" />
    <g stroke="#8fb0df" stroke-opacity="0.25" stroke-width="1">
      <line x1="120" y1="110" x2="1480" y2="110" />
      <line x1="120" y1="150" x2="1480" y2="150" />
      <line x1="120" y1="190" x2="1480" y2="190" />
      <line x1="120" y1="230" x2="1480" y2="230" />
      <line x1="120" y1="270" x2="1480" y2="270" />
      <line x1="220" y1="70" x2="220" y2="330" />
      <line x1="320" y1="70" x2="320" y2="330" />
      <line x1="420" y1="70" x2="420" y2="330" />
      <line x1="520" y1="70" x2="520" y2="330" />
      <line x1="620" y1="70" x2="620" y2="330" />
      <line x1="720" y1="70" x2="720" y2="330" />
      <line x1="820" y1="70" x2="820" y2="330" />
      <line x1="920" y1="70" x2="920" y2="330" />
      <line x1="1020" y1="70" x2="1020" y2="330" />
      <line x1="1120" y1="70" x2="1120" y2="330" />
      <line x1="1220" y1="70" x2="1220" y2="330" />
      <line x1="1320" y1="70" x2="1320" y2="330" />
      <line x1="1420" y1="70" x2="1420" y2="330" />
    </g>
  </g>
  <g opacity="0.35">
    <path d="M140 250 L260 210 L360 230 L520 170 L700 190 L840 130 L980 160 L1180 110 L1360 150" stroke="url(#accent)" stroke-width="4" fill="none"/>
    <circle cx="520" cy="170" r="6" fill="#4c7bb8"/>
    <circle cx="840" cy="130" r="6" fill="#4c7bb8"/>
    <circle cx="1180" cy="110" r="6" fill="#4c7bb8"/>
  </g>
  <g opacity="0.12">
    <rect x="80" y="40" width="1440" height="320" fill="#ffffff" rx="22"/>
  </g>
</svg>
